<?xml version="1.0" encoding="UTF-8"?>
<svg id="organic" xmlns="http://www.w3.org/2000/svg" viewBox="0 0 419.618 221">
  <defs>
    <style>
      .cls-1 {
        fill: #39b54a;
        stroke-width: 3px;
      }

      .cls-1, .cls-2 {
        stroke: #009245;
        stroke-miterlimit: 10;
      }

      .cls-2 {
        fill: lime;
      }

  #left_wing, #right_wing, #green { 
    transition: all 1s ease;
    transform-origin: center; 
  }

  #organic:hover #green { 
    transform: scale(0.9); 
  }

  #organic:hover #left_wing {
    transform: rotate(360deg);
  }

  #organic:hover #right_wing {
    transform: rotate(-360deg);
  }
    </style>
  </defs>
  <g id="left_wing">
    <path class="cls-1" d="M156.617,105.783c1.198-8.629-71.328-10.045-95.48-58.973C49.762,23.766,53.714-1.932,49.904,1.878c-15.445,15.445-16.849,54.761-5.616,74.418,27.431,48.004,110.961,39.341,112.33,29.487Z"/>
    <path class="cls-1" d="M144.84,119.525c-2.742-8.269-68.415,22.537-111.717-10.664C12.73,93.225,4.909,68.43,3.177,73.531c-7.022,20.684,9.107,56.566,27.876,69.228,45.833,30.922,116.919-13.791,113.787-23.234Z"/>
    <path class="cls-1" d="M144.535,113.905c-.181-8.71-72.019,1.356-103.602-43.138-14.875-20.956-15.035-46.955-18.194-42.591-12.81,17.693-7.981,56.736,6.218,74.371,34.674,43.064,115.785,21.306,115.578,11.359Z"/>
  </g>
  <g id="right_wing">
    <path class="cls-1" d="M263.001,106.281c-1.198-8.629,71.328-10.045,95.48-58.973,11.375-23.044,7.423-48.741,11.233-44.932,15.445,15.445,16.849,54.761,5.616,74.418-27.431,48.004-110.961,39.341-112.33,29.487Z"/>
    <path class="cls-1" d="M274.778,120.023c2.742-8.269,68.415,22.537,111.717-10.664,20.394-15.637,28.215-40.432,29.947-35.33,7.022,20.684-9.107,56.566-27.876,69.228-45.833,30.922-116.919-13.791-113.787-23.234Z"/>
    <path class="cls-1" d="M275.083,114.402c.181-8.71,72.019,1.356,103.602-43.138,14.875-20.956,15.035-46.955,18.194-42.591,12.81,17.693,7.981,56.736-6.218,74.371-34.674,43.064-115.785,21.306-115.578,11.359Z"/>
  </g>
  <circle id="green" class="cls-2" cx="210.166" cy="145" r="75.5"/>
</svg>