<?xml version="1.0" encoding="UTF-8"?>
<svg id="sour" xmlns="http://www.w3.org/2000/svg" viewBox="0 0 112.927 112.927">
  <defs>
    <style>
      .cls-1 {
        fill: #006838;
      }

      .cls-1, .cls-2 {
        stroke: #231f20;
        stroke-miterlimit: 10;
      }

      .cls-2 {
        fill: #39b54a;
      }

  #star { 
    transition: all 1s ease;
    transform-origin: center; 
  }

  #sour:hover #star { 
    transform: scale(0.5) rotate(360deg);
    ;
  }



    </style>
  </defs>
  <circle id="blance" class="cls-1" cx="56.464" cy="56.464" r="55.964"/>
  <polygon id="star" class="cls-2" points="56.464 5.216 59.526 37.13 72.3 7.725 65.35 39.022 86.586 15.004 70.305 42.622 97.923 26.341 73.905 47.577 105.203 40.627 75.797 53.401 107.711 56.464 75.797 59.526 105.203 72.3 73.905 65.35 97.923 86.586 70.305 70.305 86.586 97.923 65.35 73.905 72.3 105.203 59.526 75.797 56.464 107.711 53.401 75.797 40.627 105.203 47.577 73.905 26.341 97.923 42.622 70.305 15.004 86.586 39.022 65.35 7.725 72.3 37.13 59.526 5.216 56.464 37.13 53.401 7.725 40.627 39.022 47.577 15.004 26.341 42.622 42.622 26.341 15.004 47.577 39.022 40.627 7.725 53.401 37.13 56.464 5.216"/>
</svg>