<?xml version="1.0" encoding="UTF-8"?>
<svg id="sun" xmlns="http://www.w3.org/2000/svg" viewBox="0 0 240.5 240.5">
  <defs>
    <style>
      .cls-1 {
        fill: #6dcbd7;
      }

      .cls-1, .cls-2 {
        stroke: #231f20;
        stroke-miterlimit: 10;
      }

      .cls-2 {
        fill: #f0e929;
      }

     #flare, #core { 
        transition: all 1s ease;
        transform-origin: center; 
      }

      #sun:hover #core { 
        transform: scale(0.5);
      }

      #sun:hover #flare {
        transform: rotate(360deg) scale(0.8);
      }
    </style>
  </defs>
  <path id="flare" class="cls-1" d="M238.395,72.625l-24.727,17.111c-21.834,15.109-22.141,47.278-.598,62.8l24.397,17.579-29.584-5.385c-26.123-4.755-49.086,17.775-44.829,43.984l4.821,29.681-17.111-24.727c-15.109-21.834-47.278-22.141-62.8-.598l-17.579,24.397,5.385-29.584c4.755-26.123-17.775-49.086-43.984-44.829l-29.681,4.821,24.727-17.111c21.834-15.109,22.141-47.278.598-62.8L3.033,70.384l29.584,5.385c26.123,4.755,49.086-17.775,44.829-43.984l-4.821-29.681,17.111,24.727c15.109,21.834,47.278,22.141,62.8.598l17.579-24.397-5.385,29.584c-4.755,26.123,17.775,49.086,43.984,44.829l29.681-4.821Z"/>
  <circle id="core" class="cls-2" cx="120.25" cy="120.25" r="75.6"/>
</svg>